<svg width="400" height="400" viewBox="0 0 400 400" xmlns="http://www.w3.org/2000/svg">
  <defs>
    <!-- Gradients -->
    <linearGradient id="mainGradient" x1="0%" y1="0%" x2="100%" y2="100%">
      <stop offset="0%" style="stop-color:#00d4aa;stop-opacity:1" />
      <stop offset="50%" style="stop-color:#0ea5e9;stop-opacity:1" />
      <stop offset="100%" style="stop-color:#8b5cf6;stop-opacity:1" />
    </linearGradient>

    <linearGradient id="micGradient" x1="0%" y1="0%" x2="100%" y2="100%">
      <stop offset="0%" style="stop-color:#fbbf24;stop-opacity:1" />
      <stop offset="100%" style="stop-color:#f59e0b;stop-opacity:1" />
    </linearGradient>

    <linearGradient id="circuitGradient" x1="0%" y1="0%" x2="100%" y2="100%">
      <stop offset="0%" style="stop-color:#22d3ee;stop-opacity:0.8" />
      <stop offset="100%" style="stop-color:#a855f7;stop-opacity:0.8" />
    </linearGradient>

    <radialGradient id="glowGradient" cx="50%" cy="50%" r="50%">
      <stop offset="0%" style="stop-color:#00d4aa;stop-opacity:0.3" />
      <stop offset="100%" style="stop-color:#00d4aa;stop-opacity:0" />
    </radialGradient>

    <!-- Filter for glow effect -->
    <filter id="glow">
      <feGaussianBlur stdDeviation="4" result="coloredBlur" />
      <feMerge>
        <feMergeNode in="coloredBlur" />
        <feMergeNode in="SourceGraphic" />
      </feMerge>
    </filter>

    <!-- Drop shadow -->
    <filter id="dropshadow" x="-50%" y="-50%" width="200%" height="200%">
      <feDropShadow dx="4" dy="4" stdDeviation="3" flood-color="#000000" flood-opacity="0.3" />
    </filter>
  </defs>

  <!-- Background circle with glow -->
  <circle cx="200" cy="200" r="180" fill="url(#glowGradient)" />

  <!-- Main circular background -->
  <circle cx="200" cy="200" r="160" fill="#1e1b4b" stroke="url(#mainGradient)" stroke-width="6"
    filter="url(#dropshadow)" />

  <!-- AI Circuit pattern -->
  <g stroke="url(#circuitGradient)" stroke-width="2" fill="none" opacity="0.6">
    <!-- Circuit lines -->
    <path d="M80 120 L120 120 L120 160 L160 160" />
    <path d="M320 120 L280 120 L280 160 L240 160" />
    <path d="M80 280 L120 280 L120 240 L160 240" />
    <path d="M320 280 L280 280 L280 240 L240 240" />

    <!-- Circuit nodes -->
    <circle cx="80" cy="120" r="4" fill="url(#circuitGradient)" />
    <circle cx="120" cy="160" r="4" fill="url(#circuitGradient)" />
    <circle cx="320" cy="120" r="4" fill="url(#circuitGradient)" />
    <circle cx="280" cy="160" r="4" fill="url(#circuitGradient)" />
    <circle cx="80" cy="280" r="4" fill="url(#circuitGradient)" />
    <circle cx="120" cy="240" r="4" fill="url(#circuitGradient)" />
    <circle cx="320" cy="280" r="4" fill="url(#circuitGradient)" />
    <circle cx="280" cy="240" r="4" fill="url(#circuitGradient)" />
  </g>

  <!-- Central microphone -->
  <g transform="translate(200, 200)" filter="url(#glow)">
    <!-- Mic stand -->
    <rect x="-3" y="40" width="6" height="50" fill="url(#micGradient)" rx="3" />

    <!-- Mic head -->
    <ellipse cx="0" cy="20" rx="25" ry="35" fill="url(#micGradient)" />
    <ellipse cx="0" cy="20" rx="18" ry="28" fill="#fde047" opacity="0.8" />

    <!-- Mic grille lines -->
    <g stroke="#92400e" stroke-width="1.5" opacity="0.7">
      <line x1="-12" y1="10" x2="12" y2="10" />
      <line x1="-12" y1="16" x2="12" y2="16" />
      <line x1="-12" y1="22" x2="12" y2="22" />
      <line x1="-12" y1="28" x2="12" y2="28" />
    </g>

    <!-- Sound waves -->
    <g stroke="url(#mainGradient)" stroke-width="3" fill="none" opacity="0.8">
      <path d="M-45 -10 Q-50 0 -45 10" />
      <path d="M-55 -20 Q-65 0 -55 20" />
      <path d="M45 -10 Q50 0 45 10" />
      <path d="M55 -20 Q65 0 55 20" />
    </g>
  </g>

  <!-- Score display elements -->
  <g transform="translate(200, 320)">
    <!-- Score bar background -->
    <rect x="-60" y="-10" width="120" height="20" rx="10" fill="#374151" />
    <!-- Score bar fill -->
    <rect x="-60" y="-10" width="90" height="20" rx="10" fill="url(#mainGradient)" />
    <!-- Score text -->
    <text x="0" y="5" text-anchor="middle" fill="white" font-family="Arial, sans-serif"
      font-size="12" font-weight="bold">89.7点</text>
  </g>

  <!-- Meeting icons around the circle -->
  <g fill="url(#mainGradient)" opacity="0.7">
    <!-- Top - presentation screen -->
    <rect x="190" y="60" width="20" height="15" rx="2" />
    <rect x="192" y="62" width="16" height="11" fill="#1e1b4b" />
    <line x1="194" y1="64" x2="206" y2="64" stroke="url(#mainGradient)" stroke-width="1" />
    <line x1="194" y1="67" x2="202" y2="67" stroke="url(#mainGradient)" stroke-width="1" />

    <!-- Right - people icons -->
    <circle cx="330" cy="180" r="8" />
    <rect x="322" y="190" width="16" height="12" rx="8" />
    <circle cx="350" cy="200" r="6" />
    <rect x="344" y="208" width="12" height="10" rx="6" />

    <!-- Bottom - chart/graph -->
    <rect x="185" y="315" width="30" height="20" rx="2" />
    <polyline points="190,325 195,320 200,323 205,318 210,321" stroke="#1e1b4b" stroke-width="2"
      fill="none" />

    <!-- Left - chat bubbles -->
    <ellipse cx="70" cy="180" rx="12" ry="8" />
    <polygon points="70,188 75,195 65,195" />
    <ellipse cx="85" cy="200" rx="10" ry="6" />
    <polygon points="85,206 88,212 82,212" />
  </g>

  <!-- Company name -->
  <text x="200" y="380" text-anchor="middle" fill="url(#mainGradient)"
    font-family="Arial, sans-serif" font-size="14" font-weight="bold" filter="url(#glow)">
    AI MEETING SCORER
  </text>

  <!-- AI indicator -->
  <g transform="translate(300, 100)">
    <circle cx="0" cy="0" r="20" fill="url(#mainGradient)" opacity="0.8" />
    <text x="0" y="6" text-anchor="middle" fill="white" font-family="Arial, sans-serif"
      font-size="14" font-weight="bold">AI</text>
    <circle cx="0" cy="0" r="20" fill="none" stroke="url(#mainGradient)" stroke-width="2"
      opacity="0.6">
      <animate attributeName="stroke-dasharray" values="0,126;63,63;0,126" dur="2s"
        repeatCount="indefinite" />
    </circle>
  </g>

  <!-- Karaoke-style stars -->
  <g fill="url(#mainGradient)" opacity="0.8">
    <polygon points="120,80 122,86 128,86 123,90 125,96 120,92 115,96 117,90 112,86 118,86" />
    <polygon
      points="280,320 282,326 288,326 283,330 285,336 280,332 275,336 277,330 272,326 278,326" />
    <polygon
      points="350,120 351,124 355,124 352,127 353,131 350,129 347,131 348,127 345,124 349,124" />
    <polygon points="50,220 51,224 55,224 52,227 53,231 50,229 47,231 48,227 45,224 49,224" />
  </g>
</svg>